<svg xmlns="http://www.w3.org/2000/svg" width="800" height="600" viewBox="0 0 800 600" role="img" aria-label="NDIS properties template preview">
  <defs>
    <linearGradient id="ndis" x1="0%" y1="0%" x2="100%" y2="0%">
      <stop offset="0%" stop-color="#0369a1"/>
      <stop offset="100%" stop-color="#7c3aed"/>
    </linearGradient>
  </defs>
  <rect width="800" height="600" fill="#f0f9ff"/>
  <rect x="24" y="24" width="752" height="48" rx="8" fill="#ffffff" stroke="#e0f2fe"/>
  <rect x="40" y="38" width="120" height="20" rx="4" fill="url(#ndis)" opacity="0.9"/>
  <rect x="540" y="40" width="64" height="16" rx="4" fill="#bae6fd"/>
  <rect x="612" y="40" width="64" height="16" rx="4" fill="#bae6fd"/>
  <rect x="684" y="40" width="64" height="16" rx="4" fill="#bae6fd"/>
  <rect x="24" y="88" width="752" height="220" rx="12" fill="#0369a1" opacity="0.25"/>
  <rect x="24" y="88" width="752" height="220" rx="12" fill="url(#ndis)" opacity="0.45"/>
  <rect x="180" y="150" width="440" height="40" rx="8" fill="#ffffff" stroke="#e0f2fe" opacity="0.95"/>
  <rect x="196" y="162" width="200" height="16" rx="4" fill="#94a3b8" opacity="0.6"/>
  <rect x="420" y="156" width="88" height="28" rx="6" fill="#0369a1"/>
  <rect x="48" y="328" width="320" height="14" rx="4" fill="#64748b" opacity="0.65"/>
  <rect x="48" y="352" width="260" height="12" rx="4" fill="#94a3b8" opacity="0.5"/>
  <rect x="32" y="384" width="736" height="96" rx="10" fill="#ffffff" stroke="#e0f2fe"/>
  <rect x="48" y="400" width="100" height="64" rx="6" fill="#cbd5e1"/>
  <rect x="164" y="404" width="140" height="10" rx="3" fill="#64748b" opacity="0.55"/>
  <rect x="164" y="422" width="100" height="8" rx="3" fill="#94a3b8" opacity="0.45"/>
  <rect x="164" y="438" width="72" height="8" rx="3" fill="#7c3aed" opacity="0.5"/>
  <rect x="400" y="400" width="100" height="64" rx="6" fill="#cbd5e1"/>
  <rect x="516" y="404" width="140" height="10" rx="3" fill="#64748b" opacity="0.55"/>
  <rect x="516" y="422" width="100" height="8" rx="3" fill="#94a3b8" opacity="0.45"/>
  <rect x="516" y="438" width="72" height="8" rx="3" fill="#0369a1" opacity="0.5"/>
  <rect x="652" y="400" width="100" height="64" rx="6" fill="#cbd5e1"/>
</svg>
